<svg width="72" height="18" viewBox="0 0 72 18" fill="none" xmlns="http://www.w3.org/2000/svg">
<g id="icon-dobly">
<path d="M0.0923096 0.00813769C8.65482 -0.0066305 17.2178 0.00321466 25.7808 0.00321466C25.7852 5.94298 25.7813 11.8823 25.7827 17.822C25.8133 17.9672 25.6038 18.048 25.4923 17.9692C17.0539 17.9697 8.61554 17.9692 0.177658 17.9692C0.037027 17.9997 -0.0512313 17.7881 0.0326626 17.6743C0.0321776 11.832 0.0331475 5.99024 0.0321776 0.148436C0.0239337 0.0883785 0.044301 0.0416123 0.0923096 0.00813769ZM3.0897 2.3169C3.0863 6.74539 3.08679 11.1744 3.08921 15.6029C4.20408 15.6107 5.31943 15.6063 6.4343 15.6043C7.92547 15.4813 9.28039 14.5868 10.1688 13.3921C11.6784 11.4161 11.9999 8.63326 11.1231 6.31662C10.4137 4.37952 8.75423 2.70727 6.69374 2.38483C5.4974 2.2593 4.29088 2.33364 3.0897 2.3169ZM19.7865 2.34397C18.7958 2.34988 17.8148 2.66986 17.0088 3.25468C15.5007 4.30617 14.5599 6.06064 14.2864 7.87663C14.1021 9.28995 14.2883 10.7614 14.8625 12.0688C15.6539 13.8681 17.3085 15.3759 19.2841 15.6033C20.431 15.6097 21.5784 15.6068 22.7257 15.6043C22.7291 11.1754 22.7281 6.74588 22.7262 2.3169C21.7466 2.3297 20.7632 2.27899 19.7865 2.34397Z" fill="#BCB7C3"/>
<path d="M41.4142 0.275935C42.1653 0.20554 42.9262 0.25329 43.6735 0.354698C44.2612 0.484166 44.8824 0.607727 45.3717 0.987269C46.0463 1.46625 46.392 2.2849 46.4522 3.09863C46.538 4.26089 46.4648 5.432 46.4905 6.5977C46.5205 7.375 46.3343 8.16363 45.9095 8.81441C45.4915 9.40612 44.7903 9.69706 44.1094 9.83932C43.1245 10.0672 42.1071 9.97962 41.1057 9.99242C40.1785 9.91562 39.214 9.68623 38.4939 9.05316C37.9648 8.45308 37.7563 7.63492 37.7597 6.84433C37.7607 5.77758 37.7611 4.71082 37.7602 3.64407C37.7097 2.76438 37.9469 1.81183 38.5957 1.19353C39.3682 0.513703 40.4244 0.328608 41.4142 0.275935ZM41.5111 1.75029C41.0606 1.78426 40.5665 1.87435 40.243 2.22534C40.0088 2.56796 39.9036 2.98344 39.8968 3.39744C39.8924 4.5464 39.8919 5.69537 39.8968 6.84433C39.9191 7.34842 40.0466 7.91749 40.4782 8.22073C40.952 8.53874 41.5364 8.50083 42.0761 8.5604C42.6629 8.48016 43.3238 8.56335 43.8209 8.1715C44.2442 7.83676 44.317 7.2539 44.3543 6.74637C44.3422 5.60331 44.3873 4.4573 44.3301 3.31621C44.3218 2.84018 44.1788 2.30508 43.7583 2.0363C43.0809 1.64642 42.2579 1.70894 41.5111 1.75029Z" fill="#BCB7C3"/>
<path d="M27.9262 0.401956C29.5395 0.386696 31.1529 0.397526 32.7663 0.396541C33.7013 0.434939 34.7385 0.537824 35.4713 1.19304C36.1812 1.81232 36.3354 2.8136 36.3747 3.71003C36.4198 4.84029 36.4416 5.97941 36.3291 7.10721C36.2578 7.78113 36.0367 8.45751 35.5901 8.97292C34.9024 9.65964 33.8797 9.77779 32.9603 9.79797C31.327 9.79748 29.6942 9.796 28.0615 9.79896C27.9936 9.796 27.9145 9.80733 27.8743 9.7389C27.9368 9.53313 27.8588 9.31899 27.8728 9.10928C27.8617 6.40129 27.8699 3.69329 27.8689 0.9853C27.8224 0.801682 27.9611 0.628402 27.884 0.451184C27.8946 0.438877 27.9155 0.414263 27.9262 0.401956ZM30.0613 1.78032C29.9294 1.8581 30.0604 2.06682 30.0002 2.16676C30.0051 4.21707 29.9983 6.26739 30.0031 8.31771C30.94 8.3246 31.8774 8.32115 32.8148 8.31869C33.0049 8.32657 33.1901 8.26208 33.3623 8.18725C33.9602 7.88598 34.2337 7.19188 34.2677 6.54946C34.2691 5.56442 34.2725 4.57939 34.2662 3.59435C34.225 3.1193 34.144 2.60291 33.7982 2.25192C33.5407 1.94277 33.1412 1.83939 32.7663 1.7754C31.8643 1.77392 30.9623 1.76555 30.0613 1.78032Z" fill="#BCB7C3"/>
<path d="M48.1009 0.401956C48.791 0.389157 49.4825 0.392111 50.1735 0.398018C50.1799 3.00559 50.1687 5.61316 50.1784 8.22073C51.5018 8.22713 52.8257 8.2163 54.15 8.22467C54.1505 8.72925 54.1592 9.23432 54.1457 9.7389C54.1321 9.7517 54.1054 9.7773 54.0918 9.7901C52.0949 9.80142 50.096 9.80388 48.1 9.7896C48.0869 9.7768 48.0612 9.75022 48.0481 9.73693C48.0306 6.70502 48.0481 3.67311 48.0394 0.640709C48.0471 0.558499 48.0151 0.451676 48.1009 0.401956Z" fill="#BCB7C3"/>
<path d="M55.3173 0.396541C56.8521 0.39408 58.3874 0.393095 59.9227 0.397033C60.4348 0.441338 60.9702 0.468906 61.4265 0.738179C61.9265 0.96364 62.3231 1.42392 62.4449 1.96935C62.5889 2.56894 62.5802 3.21677 62.3484 3.79273C62.1035 4.37903 61.4764 4.67243 60.8882 4.76546C60.7452 4.74233 60.5633 4.95302 60.9896 4.827C61.4949 4.90084 62.0259 5.03818 62.4095 5.40148C62.8803 5.86176 63.0404 6.54355 63.0277 7.18794C63.1078 8.00413 62.699 8.82918 62.0453 9.29388C61.4692 9.70247 60.7422 9.73053 60.0682 9.79403C58.4844 9.79994 56.9001 9.79994 55.3168 9.79453C55.3144 6.6617 55.3139 3.52937 55.3173 0.396541ZM57.451 1.7754C57.4476 3.98915 57.4481 6.2029 57.4505 8.41665C58.1284 8.42207 58.8074 8.42059 59.4863 8.41665C60.0304 8.39303 60.5856 8.15329 60.8916 7.68071C61.0429 7.34891 61.1903 6.96494 61.0919 6.5977C61.0705 6.22752 60.9047 5.82041 60.5507 5.66534C59.9115 5.33749 59.1589 5.4384 58.4698 5.41477C58.4597 5.05541 58.466 4.69605 58.4694 4.33719C59.0013 4.31257 59.5435 4.3111 60.0628 4.18015C60.4227 4.0817 60.6647 3.73957 60.6792 3.36692C60.7888 2.74911 60.5129 1.95655 59.8577 1.79312C59.0566 1.74931 58.2526 1.78229 57.451 1.7754Z" fill="#BCB7C3"/>
<path d="M63.262 0.398511C63.9554 0.398511 64.6508 0.381773 65.3448 0.402448C65.5775 0.746547 65.7453 1.13889 65.9645 1.4948C66.4815 2.51922 67.0561 3.51214 67.5832 4.53065C67.6089 4.59908 67.72 4.72362 67.7287 4.53016C68.4702 3.14195 69.2577 1.77786 70.0176 0.399987C70.6771 0.38965 71.3381 0.39408 71.9991 0.397033C72.0034 0.455121 71.9928 0.509272 71.9661 0.558991C70.9758 2.32822 69.9846 4.09696 69.0026 5.87062C68.9158 6.05473 68.7718 6.21127 68.7223 6.41162C68.7723 7.35827 68.7427 8.30835 68.7432 9.25598C68.6578 9.42581 68.8397 9.66654 68.6884 9.7901C67.9324 9.80536 67.1769 9.79748 66.4218 9.79502C66.414 8.63178 66.4271 7.46804 66.4174 6.3048C65.5324 4.67587 64.6639 3.03759 63.7726 1.4121C63.6286 1.06111 63.3842 0.757378 63.262 0.398511Z" fill="#BCB7C3"/>
<path d="M37.8247 12.0324C38.5453 11.9861 39.2693 12.026 39.9914 12.0117C40.4297 11.994 40.9103 12.0388 41.2953 12.2677C41.2992 12.4932 41.3094 12.7206 41.2973 12.9466C40.4094 12.9515 39.521 12.9466 38.6331 12.947C38.376 12.9274 38.0734 12.9751 37.9139 13.204C37.9013 14.2959 37.8989 15.3902 37.9144 16.4816C38.0831 16.6046 38.233 16.7538 38.4076 16.8705C39.0026 16.9384 39.6252 16.8847 40.1805 16.6795C40.1887 16.2581 40.1907 15.8367 40.1805 15.4158C39.8081 15.3208 39.4041 15.4709 39.0229 15.4079C39.02 15.1293 39.0128 14.8516 39.0239 14.574C39.8144 14.5735 40.6053 14.5661 41.3962 14.576C41.3967 15.624 41.4025 16.6731 41.3943 17.7211C41.0902 17.7186 40.7867 17.7388 40.4845 17.7167C40.405 17.6241 40.4031 17.4917 40.3682 17.3795C40.2915 17.378 40.2586 17.4582 40.2028 17.4956C39.9977 17.7137 39.6771 17.7408 39.408 17.8181C38.7053 17.7733 37.9507 17.9554 37.2835 17.663C36.8635 17.4922 36.6623 17.0221 36.6472 16.5913C36.6443 15.4429 36.6419 14.2944 36.6482 13.1464C36.7001 12.8373 36.8116 12.4878 37.0885 12.3135C37.2874 12.1274 37.5725 12.0929 37.8247 12.0324Z" fill="#BCB7C3"/>
<path d="M51.3059 12.0688C51.8131 12.059 52.3223 12.0536 52.8305 12.0678C53.3712 13.6672 53.9803 15.2445 54.536 16.8394C54.6228 17.1353 54.7906 17.4125 54.8338 17.7206C54.4153 17.7236 53.9973 17.7314 53.5807 17.7162C53.3722 17.2598 53.2815 16.7533 53.0764 16.2999C52.3543 16.292 51.6318 16.2906 50.9107 16.3009C50.7031 16.7553 50.6163 17.2672 50.4087 17.7182C50.0378 17.7241 49.6678 17.7314 49.2982 17.7196C49.9621 15.8347 50.6459 13.9557 51.3059 12.0688ZM51.9799 12.8663C51.8417 13.0179 51.8868 13.2729 51.7976 13.4565C51.5784 14.0857 51.3859 14.7232 51.19 15.3567C51.7253 15.3671 52.2612 15.3597 52.7975 15.3572C52.6608 14.8802 52.4683 14.4214 52.3436 13.9414C52.218 13.5806 52.059 13.2252 52.0061 12.8442L51.9799 12.8663Z" fill="#BCB7C3"/>
<path d="M28.0168 12.1126C29.1472 12.1112 30.2781 12.1067 31.409 12.1151C31.8372 12.1624 32.3386 12.2987 32.5529 12.7191C32.6591 12.8727 32.6654 13.0681 32.7139 13.2449C32.7222 14.3274 32.7149 15.4104 32.7173 16.4934C32.6907 16.834 32.5743 17.187 32.3279 17.4277C32.053 17.6374 31.7024 17.7408 31.36 17.7241C30.2451 17.7186 29.1298 17.7295 28.0149 17.7196C28.0134 15.851 28.0096 13.9818 28.0168 12.1126ZM29.2767 13.048C29.2714 14.3097 29.2738 15.5718 29.2757 16.834C29.8087 16.8434 30.3416 16.8365 30.8751 16.835C31.0375 16.8449 31.2014 16.8015 31.344 16.7238C31.4192 16.5771 31.5147 16.4259 31.4575 16.2467C31.4492 15.3484 31.4701 14.45 31.4463 13.552C31.2853 13.3857 31.1199 13.2232 30.9604 13.0558C30.3993 13.0361 29.8378 13.0475 29.2767 13.048Z" fill="#BCB7C3"/>
<path d="M34.03 12.1126C34.4481 12.1087 34.867 12.1072 35.286 12.1131C35.287 13.9823 35.2914 15.8519 35.2841 17.7216C34.8651 17.725 34.4461 17.7265 34.0281 17.7211C34.0271 15.8519 34.0223 13.9823 34.03 12.1126Z" fill="#BCB7C3"/>
<path d="M42.8132 12.1176C43.2099 12.1057 43.607 12.1048 44.0052 12.1181C44.0183 12.1313 44.0449 12.1584 44.0585 12.1717C44.0711 14.0217 44.0648 15.8716 44.0619 17.7216C43.6298 17.7241 43.1987 17.727 42.7676 17.7221C42.8505 16.4786 42.7812 15.2277 42.804 13.9818C42.787 13.3773 42.8404 12.7688 42.7734 12.1678C42.7836 12.1555 42.8035 12.1304 42.8132 12.1176Z" fill="#BCB7C3"/>
<path d="M44.7471 12.1126C46.297 12.1102 47.8473 12.1097 49.3977 12.1131C49.3967 12.4233 49.4083 12.7344 49.3957 13.045C48.8502 13.0612 48.3041 13.0253 47.7605 13.0544C47.7474 13.0672 47.7217 13.0937 47.7086 13.107C47.6892 14.6449 47.712 16.1832 47.6984 17.7216C47.2795 17.725 46.8605 17.7265 46.4425 17.7211C46.4366 16.1636 46.4454 14.606 46.4391 13.0485C45.8741 13.0396 45.3096 13.0529 44.7457 13.0445C44.7432 12.7334 44.734 12.4233 44.7471 12.1126Z" fill="#BCB7C3"/>
<path d="M55.9491 12.1126C56.3671 12.1087 56.7857 12.1072 57.2051 12.1131C57.2105 13.6707 57.2022 15.2282 57.2085 16.7858C58.0795 16.7956 58.9519 16.7779 59.8233 16.7912C59.8228 17.1003 59.8344 17.4115 59.8218 17.7216C58.5305 17.7241 57.2386 17.7246 55.9477 17.7211C55.9457 15.8519 55.9419 13.9823 55.9491 12.1126Z" fill="#BCB7C3"/>
</g>
</svg>
