<svg width="25" height="25" viewBox="0 0 25 25" fill="none" xmlns="http://www.w3.org/2000/svg">
<path id="icon-globe" d="M5.10954 7.44199C5.10269 7.54131 5.09562 7.63782 5.08874 7.73186C5.00439 8.88353 4.94718 9.66472 5.6591 10.6909L11.7108 20.1233C12.2304 20.5526 11.9417 21.0773 11.6216 21.6591C11.5102 21.8617 11.3949 22.0712 11.3086 22.286C9.12669 22.0247 7.10788 21.048 5.52989 19.47C3.66811 17.6083 2.64284 15.1329 2.64284 12.5C2.64284 10.1772 3.44123 7.97738 4.90754 6.21291C4.91207 6.25925 4.91703 6.30584 4.92225 6.35244M5.10954 7.44199C5.12594 7.2036 5.0892 6.90237 5.05107 6.58961C5.03713 6.47536 5.02302 6.35957 5.01123 6.24474C4.98129 6.28046 4.95163 6.31636 4.92225 6.35244M5.10954 7.44199L5.00977 7.43511C5.00977 7.43512 5.00977 7.43512 5.00977 7.43513L5.10954 7.44199ZM4.92225 6.35244C3.51051 8.08597 2.74284 10.2336 2.74284 12.5C2.74284 15.1064 3.75758 17.5563 5.6006 19.3993C7.14469 20.9434 9.11466 21.9056 11.2455 22.1774C11.3271 21.9882 11.4275 21.8044 11.5233 21.6304L11.5325 21.6135C11.6381 21.4217 11.7364 21.2429 11.8049 21.0725C11.8753 20.8972 11.9094 20.7416 11.8913 20.6012C11.8737 20.4649 11.8055 20.3313 11.6471 20.2004M4.92225 6.35244C4.93169 6.43681 4.94198 6.52122 4.9521 6.60421C4.9613 6.67974 4.97037 6.7541 4.97852 6.82619L11.6471 20.2004M11.6471 20.2004C11.1924 19.8248 10.7787 19.4424 10.3623 19.026L10.433 18.9553L10.3623 19.026C10.3364 19.0001 10.3099 18.9617 10.2851 18.9212C10.2591 18.8788 10.2309 18.8273 10.2019 18.7704C10.1439 18.6564 10.0812 18.517 10.0257 18.3776C9.97027 18.2386 9.92099 18.0968 9.89095 17.9787C9.87599 17.9199 9.86501 17.8639 9.86111 17.8155C9.85769 17.773 9.85736 17.7143 9.88479 17.6671C10.1071 17.2843 10.1701 17.0033 10.2579 16.6125C10.2778 16.5238 10.2989 16.4295 10.3235 16.3271C10.4 16.0086 10.3534 15.8291 10.2415 15.6868C10.1822 15.6113 10.1006 15.5414 9.99582 15.467C9.91291 15.4081 9.81956 15.3491 9.71485 15.2829C9.68646 15.2649 9.65723 15.2465 9.62715 15.2273C9.07252 14.8744 8.54872 14.4438 8.03315 14.02C7.76252 13.7976 7.49416 13.577 7.22479 13.3705C7.13333 13.3004 7.03154 13.2324 6.92451 13.161L6.91125 13.1522C6.80051 13.0782 6.68493 13.0007 6.57683 12.9166C6.3616 12.7492 6.1631 12.5464 6.08282 12.2713C6.08282 12.2713 6.08282 12.2712 6.08282 12.2712L11.6471 20.2004ZM9.91683 6.35967L9.92762 5.64438L9.92762 5.64436C9.92885 5.56324 9.89202 5.49162 9.85265 5.43535C9.81258 5.3781 9.76072 5.32414 9.71495 5.27788C9.70685 5.26969 9.69897 5.26178 9.69135 5.25412C9.6533 5.21586 9.62145 5.18385 9.59749 5.15422C9.58351 5.13692 9.57573 5.12458 9.57192 5.11647C9.57157 5.11572 9.57128 5.11506 9.57103 5.11449C9.57511 5.09322 9.58673 5.06374 9.61028 5.02548C9.63559 4.98435 9.67145 4.93827 9.71663 4.88806C9.80709 4.78751 9.92792 4.67804 10.0577 4.56788C10.1418 4.49656 10.2273 4.42685 10.3096 4.35976C10.3549 4.32288 10.3991 4.2868 10.4417 4.25167C10.5583 4.15533 10.6643 4.06423 10.7272 3.99181L10.8041 3.90345L10.7048 3.8414C10.67 3.8197 10.6119 3.77629 10.5357 3.71937L10.5328 3.71718C10.4573 3.66083 10.3681 3.59436 10.2783 3.53298C10.1892 3.47203 10.0958 3.41353 10.012 3.37448C9.97023 3.35499 9.92724 3.33865 9.88597 3.3301C9.84625 3.32187 9.7967 3.31844 9.7496 3.33806L9.74958 3.33807C9.55536 3.41901 9.34789 3.48765 9.13605 3.55768L9.1339 3.55839C8.96966 3.61268 8.80279 3.66783 8.64127 3.72956C8.6365 3.66506 8.62904 3.60245 8.62042 3.54136C9.37824 3.21299 10.1777 2.98258 11.0034 2.85627L11.7336 3.14973L12.2673 3.78314L12.2672 3.78329L12.272 3.78832L12.8207 4.35408L12.8381 4.372L12.8618 4.37965L13.3415 4.53418L13.3977 4.55231L13.4407 4.51175L14.2025 3.79327L14.2513 3.74731L14.2273 3.68476L14.0375 3.18912V2.86283C15.3962 3.07661 16.6835 3.5732 17.8295 4.32347C17.7155 4.33687 17.5962 4.35215 17.4709 4.36819C17.4438 4.37167 17.4163 4.37519 17.3885 4.37873C17.3306 4.34839 17.269 4.32596 17.2114 4.30691C17.1859 4.2985 17.1619 4.29093 17.1388 4.28366C17.0966 4.27038 17.0577 4.2581 17.0189 4.24348L16.7896 4.15699L16.8929 4.37922C17.2546 5.15683 17.6317 5.92343 18.0145 6.6898C18.1744 7.00997 18.4097 7.34022 18.6427 7.66734C18.7136 7.76696 18.7844 7.86629 18.8527 7.96496C19.1507 8.39516 19.4051 8.81469 19.4804 9.22316C19.5725 9.72312 19.5869 10.2015 19.5906 10.7089C19.5912 10.7876 19.5915 10.8671 19.5918 10.9475C19.5936 11.3833 19.5955 11.8447 19.6392 12.3546C19.6908 12.9575 20.028 13.5911 20.3428 14.066C20.5014 14.3052 20.6567 14.5077 20.7724 14.6505C20.8303 14.7219 20.8783 14.7785 20.9121 14.8173C20.9289 14.8367 20.9422 14.8517 20.9513 14.862L20.9618 14.8737L20.9646 14.8767L20.9654 14.8776L20.9656 14.8778L20.9657 14.8779L21.0394 14.8103M9.91683 6.35967L16.7435 19.2545C16.5307 19.7334 16.0276 20.3284 15.6244 20.6395L15.6244 20.6395C15.2257 20.9469 14.7956 21.4609 14.5209 22.0482C16.356 21.6637 18.0422 20.7565 19.3993 19.3993C20.6261 18.1725 21.4855 16.677 21.9232 15.0458C21.7208 15.0545 21.5165 15.0268 21.3551 14.9947C21.2538 14.9746 21.1674 14.9523 21.1062 14.9351C21.0756 14.9265 21.0512 14.9191 21.0342 14.9138L21.0146 14.9075L21.0093 14.9057L21.0078 14.9052L21.0074 14.9051L21.0073 14.905L21.0072 14.905L21.0394 14.8103M9.91683 6.35967C9.98709 6.29048 10.0715 6.20612 10.162 6.11563C10.2313 6.04639 10.3042 5.97356 10.3771 5.90121C10.511 5.76823 10.6435 5.63826 10.7494 5.53961C10.8022 5.49041 10.8496 5.44795 10.8877 5.41652C10.9067 5.40088 10.9247 5.38689 10.9408 5.37587C10.9533 5.36727 10.976 5.35231 11.0014 5.34577C11.0014 5.34577 11.0014 5.34576 11.0014 5.34576L9.91683 6.35967ZM21.0394 14.8103L20.9657 14.8779L20.983 14.8968L21.0072 14.905L21.0394 14.8103ZM16.001 16.2284L16.0409 16.1367C16.2712 16.2367 16.7291 16.5181 17.0816 16.8522C17.2578 17.0191 17.4146 17.2056 17.5012 17.3954C17.5888 17.5876 17.609 17.796 17.4867 17.9847C17.4577 18.0294 17.4288 18.0738 17.4001 18.1179C17.1552 18.494 16.9232 18.8502 16.7435 19.2545L16.001 16.2284ZM16.001 16.2284L16.0409 16.1367C15.2112 15.7765 14.5572 15.3101 13.8374 14.7968C13.7111 14.7067 13.5828 14.6152 13.4511 14.5226L13.3936 14.6043L13.4511 14.5225C13.2717 14.3963 13.0523 14.354 12.8247 14.3499C12.5972 14.3458 12.3501 14.38 12.1089 14.4169C12.0782 14.4216 12.0477 14.4263 12.0172 14.431C11.8049 14.4638 11.5984 14.4958 11.4044 14.5065C11.1824 14.5187 10.9892 14.5021 10.8339 14.4343C10.1054 14.1163 9.47805 13.6204 8.84234 13.1179C8.64713 12.9636 8.45114 12.8087 8.2512 12.6581C7.83606 12.3455 7.64281 12.0116 7.55046 11.6415C7.46445 11.2969 7.46512 10.9199 7.46588 10.4861C7.46589 10.4783 7.46591 10.4706 7.46592 10.4628C7.6 10.4637 7.74184 10.4578 7.884 10.4519C7.89622 10.4514 7.90845 10.4509 7.92068 10.4504C8.11414 10.4425 8.30846 10.4355 8.49481 10.4444C8.87094 10.4622 9.18754 10.5437 9.38478 10.7826C9.40034 10.8014 9.42333 10.8323 9.45206 10.8707C9.53459 10.9814 9.66448 11.1554 9.80139 11.2914C9.89506 11.3845 10.0032 11.4721 10.1167 11.516C10.2361 11.5622 10.3686 11.5615 10.4848 11.4643L10.4848 11.4643M16.001 16.2284L10.4848 11.4643M10.4848 11.4643C10.5898 11.3766 10.609 11.2359 10.601 11.1088C10.5927 10.9771 10.5535 10.8278 10.5054 10.6856C10.4323 10.4698 10.3312 10.2509 10.2691 10.1164C10.2498 10.0746 10.2343 10.041 10.2245 10.0181L10.2245 10.0181M10.4848 11.4643L10.2245 10.0181M10.2245 10.0181C10.1653 9.87943 10.1718 9.77106 10.2131 9.67682M10.2245 10.0181L10.2131 9.67682M10.2131 9.67682C10.2568 9.57736 10.3437 9.48362 10.4643 9.38773M10.2131 9.67682L10.4643 9.38773M10.4643 9.38773C10.5656 9.30717 10.6827 9.23106 10.8058 9.15099M10.4643 9.38773L10.8058 9.15099M10.8058 9.15099C10.8291 9.13584 10.8526 9.12055 10.8763 9.10507M10.8058 9.15099L10.8763 9.10507M10.8763 9.10507C11.0222 9.00957 11.1728 8.90715 11.2961 8.79054L10.8763 9.10507ZM9.57006 5.12042L9.57006 5.1204C9.57006 5.1204 9.57006 5.12041 9.57006 5.12042ZM12.5 0.9C6.09345 0.9 0.9 6.09351 0.9 12.5C0.9 18.9065 6.09345 24.1 12.5 24.1C18.9065 24.1 24.1 18.9065 24.1 12.5C24.1 6.09351 18.9065 0.9 12.5 0.9Z" fill="#F79E44" stroke="#FF8FC6" stroke-width="0.2"/>
</svg>
