<svg width="25" height="22" viewBox="0 0 25 22" fill="none" xmlns="http://www.w3.org/2000/svg">
<g id="icon-sound">
<path id="Vector" d="M19.9746 8.05229C20.8281 9.76029 20.8281 12.2388 19.9746 13.9468C19.7998 14.2975 19.4463 14.4996 19.0791 14.4996C18.9287 14.4996 18.7764 14.4654 18.6328 14.3941C18.1387 14.147 17.9385 13.5464 18.1855 13.0523C18.7607 11.9009 18.7607 10.0982 18.1855 8.94678C17.9384 8.45268 18.1386 7.85209 18.6328 7.60499C19.127 7.35999 19.7285 7.55819 19.9746 8.05229ZM22.7607 16.9469C22.585 17.2975 22.2324 17.4996 21.8652 17.4996C21.7148 17.4996 21.5625 17.4654 21.4189 17.3941C20.9248 17.147 20.7246 16.5464 20.9716 16.0523C22.412 13.1714 22.412 8.82768 20.9716 5.94678C20.7245 5.45268 20.9247 4.85209 21.4189 4.60499C21.913 4.35989 22.5136 4.55809 22.7607 5.05229C24.4834 8.49859 24.4834 13.5006 22.7607 16.9469Z" fill="#F79E44"/>
<path id="Vector 31" d="M5.66822 6.6H3C1.89543 6.6 1 7.49543 1 8.6V13.4C1 14.5046 1.89543 15.4 3 15.4H5.66822C6.15084 15.4 6.61719 15.5745 6.98124 15.8914L10.687 19.1166C11.9813 20.243 14 19.3238 14 17.6079V4.39205C14 2.67624 11.9813 1.75697 10.687 2.88342L6.98123 6.10864C6.61718 6.42548 6.15084 6.6 5.66822 6.6Z" stroke="#F79E44" stroke-width="2"/>
</g>
</svg>
