<svg width="98" height="18" viewBox="0 0 98 18" fill="none" xmlns="http://www.w3.org/2000/svg">
<path id="icon-ultrahd" d="M7.73676 14.0466C8.29711 14.0466 8.79738 13.9496 9.23812 13.7546C9.66728 13.5691 10.0501 13.2825 10.3572 12.917C10.6625 12.5527 10.8946 12.1103 11.0552 11.5865C11.2163 11.0639 11.296 10.4678 11.296 9.80233V0.764749H15.4735V9.80175C15.4735 10.9612 15.2938 12.026 14.935 12.9933C14.5778 13.9628 14.0644 14.7982 13.3976 15.4992C12.7302 16.2003 11.9186 16.7453 10.9629 17.1366C10.0066 17.5267 8.93119 17.7212 7.73676 17.7212C6.53413 17.7212 5.4544 17.5267 4.49864 17.1366C3.54287 16.7453 2.73239 16.2003 2.06445 15.4992C1.39651 14.7964 0.885856 13.9628 0.531951 12.9933C0.178046 12.0249 0 10.9601 0 9.80175V0.764749H4.1775V9.78856C4.1775 10.4546 4.25724 11.0496 4.41781 11.5734C4.57892 12.0966 4.81158 12.5418 5.11633 12.9101C5.42108 13.2784 5.79301 13.5601 6.2343 13.7546C6.67613 13.9496 7.17695 14.0466 7.73676 14.0466ZM22.3697 14.1189H29.0437V17.5124H18.1928V0.764749H22.3697V14.1189ZM41.8722 0.265626V3.74515H36.805V17.5124H32.6281V3.74515H27.5604V0.265626H41.8722ZM47.7794 11.9182V17.5129H43.6024V0H49.461C50.7624 0 51.8728 0.140558 52.7914 0.422247C53.7116 0.702789 54.461 1.09463 55.041 1.59662C55.6215 2.09861 56.0437 2.69125 56.3069 3.37626C56.5702 4.05897 56.7029 4.80363 56.7029 5.60969C56.7029 6.22413 56.6248 6.80414 56.4681 7.34916C56.3113 7.89418 56.0787 8.39847 55.7706 8.86145C55.4626 9.32558 55.0825 9.73807 54.6335 10.1012C54.1846 10.4644 53.6669 10.7633 53.0825 10.9974C53.3621 11.1448 53.6242 11.3267 53.8678 11.5429C54.1098 11.7581 54.3233 12.0226 54.5041 12.3341L58.3364 17.5129H54.5538C53.8542 17.5129 53.3506 17.2364 53.0442 16.6828L50.053 12.594C49.9219 12.3513 49.7673 12.178 49.5898 12.0742C49.4129 11.9704 49.1638 11.9187 48.8422 11.9187H47.7794V11.9182ZM47.7794 8.893H49.4599C50.0284 8.893 50.5128 8.81728 50.9121 8.66582C51.3113 8.51436 51.639 8.30438 51.8951 8.03646C52.1475 7.77178 52.3379 7.44909 52.4511 7.09387C52.569 6.71937 52.6277 6.32711 52.6248 5.93269C52.6248 5.10196 52.3659 4.45253 51.8514 3.98438C51.3364 3.51853 50.5396 3.28331 49.4599 3.28331H47.7794V8.893ZM76.7968 17.5129H73.5582C73.1955 17.5129 72.8968 17.4251 72.6619 17.2467C72.4336 17.0804 72.262 16.8415 72.1726 16.5652L71.1103 13.9215H64.2643L63.2015 16.5652C63.1202 16.8073 62.9601 17.0258 62.7209 17.2203C62.4812 17.4154 62.1884 17.5129 61.8433 17.5129H58.58L65.5511 0.00057339H69.8263L76.7968 17.5129ZM65.2299 11.6847H70.1486L68.4932 6.50467C68.3867 6.17651 68.2594 5.78869 68.1169 5.34292C67.9626 4.86458 67.8207 4.38191 67.6914 3.89546C67.4706 4.78935 67.202 5.66947 66.887 6.53163L65.2299 11.6847ZM86.9181 18H85.5598V13.2319H80.1873V18H78.8296V7.52128H80.1873V12.193H85.5598V7.52128H86.9181V18ZM98 12.7638C98 13.5492 97.8804 14.2629 97.645 14.906C97.4091 15.5503 97.0743 16.1005 96.6423 16.5583C96.2019 17.0236 95.673 17.386 95.0901 17.6219C94.4872 17.8726 93.8187 17.9983 93.0858 17.9983H89.3545V7.5207H93.0858C93.8187 7.5207 94.4861 7.64749 95.0901 7.89762C95.6731 8.13485 96.202 8.49845 96.6423 8.96472C97.0818 9.43813 97.4233 10.0021 97.645 10.621C97.8804 11.2647 98 11.979 98 12.7638ZM96.6144 12.7638C96.6144 12.1207 96.5325 11.5458 96.3637 11.0381C96.1972 10.5315 95.9607 10.1024 95.6532 9.75184C95.3442 9.39951 94.9636 9.12496 94.5396 8.94865C94.1038 8.76335 93.6177 8.67098 93.0858 8.67098H90.7111V16.8543H93.0858C93.6193 16.8543 94.1038 16.7614 94.5396 16.5766C94.9633 16.4009 95.3439 16.1272 95.6532 15.7757C95.9601 15.4287 96.1972 14.9989 96.3637 14.4935C96.5309 13.9829 96.6144 13.4081 96.6144 12.7638Z" fill="#BCB7C3"/>
</svg>
